<svg fill="none" height="129" viewBox="0 0 128 129" width="128" xmlns="http://www.w3.org/2000/svg" xmlns:xlink="http://www.w3.org/1999/xlink"><linearGradient id="a" gradientUnits="userSpaceOnUse" x1="63.9998" x2="63.9998" y1="97.2103" y2="32.5003"><stop offset="0" stop-color="#14555d"/><stop offset="1" stop-color="#27a9b7"/></linearGradient><path d="m115.313 32.5h-88.0604c-11.0451 0-12.4657 10.4248-12.4657 22.7505 0 12.3258 1.0805 22.7506 12.1256 22.7506h3.1414c2.3211 0 4.222 1.4207 4.222 3.8218 0 2.7212-1.9809 3.9418-4.282 3.9418h-29.9939v11.4453h29.9739c7.5635 0 12.4658-1.9809 15.3871-5.3825 2.7213-3.1415 3.7418-7.5635 3.7418-12.7459v-4.282c0-2.121 1.7808-3.7417 3.8818-3.7417 2.1209 0 3.8818 1.8408 3.8818 4.0819v5.0423h29.1735v-5.3225c0-2.1209 1.7808-3.7417 3.8818-3.7417s3.8818 1.8409 3.8818 4.0819v5.0423h10.7645v-34.596c0-2.121 1.781-3.7417 3.882-3.7417s3.882 1.8408 3.882 4.0819v34.1958h15.667v-33.3755c.06-9.6845-3.961-14.3066-12.686-14.3066zm-76.8952 32.1549c0 2.121-1.7808 4.0819-3.8818 4.0819-2.121 0-3.8818-1.6408-3.8818-3.7417v-19.349c0-2.121 1.7808-3.7417 3.8818-3.7417 2.121 0 3.8818 1.8408 3.8818 4.0819zm36.9972 0c0 2.121-1.7809 4.0819-3.8818 4.0819-2.101 0-3.8818-1.6408-3.8818-3.7417v-19.349c0-2.121 1.7808-3.7417 3.8818-3.7417 2.1009 0 3.8818 1.8408 3.8818 4.0819z" fill="url(#a)"/></svg>